/* XPM */
static char *dummy[]={
"128 128 50 1",
"d c #aa743d",
"T c #ab743d",
"H c #ab753d",
"f c #ac753e",
"j c #ad763e",
"o c #ae773e",
"n c #af773f",
"i c #b0783f",
"V c #b1783f",
"U c #b1793f",
"D c #b17940",
"G c #b27940",
"S c #b27a40",
"M c #b37a40",
". c #b47b41",
"e c #b57b41",
"s c #b67c41",
"q c #b77d42",
"h c #b87d42",
"p c #b87e42",
"g c #b97e42",
"r c #b97e43",
"y c #ba7f43",
"F c #bb7f43",
"P c #bb8043",
"# c #bc8044",
"m c #bd8144",
"L c #be8144",
"O c #be8245",
"C c #bf8245",
"l c #c08345",
"k c #c18345",
"u c #c28446",
"x c #c38546",
"a c #c48647",
"c c #c58647",
"b c #c58747",
"B c #c68747",
"v c #c78847",
"w c #c78848",
"I c #c88948",
"J c #c98948",
"E c #ca8a48",
"N c #cb8b48",
"t c #cb8b49",
"Q c #cc8b49",
"A c #cd8c49",
"K c #ce8d49",
"R c #cf8d49",
"z c #d08e4a",
".......#aaaaaaaaaaaaabaaaaaaaaa.......................................#aaaacabaaaaaaacaaaaaaaaddddddddddddddddddddd............e",
".......#aaaaaaaaaaaaaaaaaaaaaaa.......................................#aaaaaaaaaaaaaaaaaaaaaaaddddddddddddddddddddd.............",
".......#aaaaaaaaaaaaaaaaaaaaaaa.......................................#aaaaaaaaaaaaaaaaaaaaaaaddddddddddddddddddddf.............",
".......#aaaaaaaaaaaaaaaaaaaaaaa.......................................#aaaaaaaaaaaaaaaaaaaaaaaddddddddddddddddddddf.............",
".......gaaaaaaaaaaaaaaaaaaaaaaah......................................haaaaaaaaaaaaaaaaaaaaaaaidddddddddddddddddddf.............",
".......haaaaaaaaaaaaaaaaaaaaaaah........ehhhhhh.......................haaaaaaaaaaaaaaaaaaaaaaaidddddddddddddddddddj.............",
".......haaaaaaaaaaaaaaaaaaaaaaah........haaaaaaaaaaaaklllllm#####h....haaaaaaaaaaaaaaaaaaaaaaaidddddddddddddddddddn.............",
".......haaaaaaaaaaaaaaaaaaaaaaah........haaaaaaaaaaaaaaaaaaaaaaaa#....haaaaaaaaaaaaaaaaaaaaaaaiddddddommmmmmpqqqqqr##########s..",
".......haaaaaaaaaaaaaaaaaaaaaaah........haaaaaaaaaaaaaaaaaaaaaaaa#....haaaaaaaaaaaaaaaaaaaaaaaiddddddiaaaaaaaaaaaaaaaaaaaaaaah..",
".......haaaaaaaaaaaaaaaaaaaaaaah........#aaaaaaaaaaaaaaaaaaaaaaaa#....haaaaaaaaaaaaaaaaaaaaaaaiddddddiaaaaaaaaaaaaaaaaaaaaaaah..",
".......haaaaaaaaaaaaaaaaaaaaaaah........#aaaaaaaaaaaaaaaaaaaaaaaah....haaaaaaaaaaaaaaaaaaaaaaaiddddddiaaaaaaaaaaaaaaaaaaaaaaah..",
".......haaaaaaaaaaaaaaaaaaaaaaah........#aaaaaaaaaaaaaaaaaaaaaaaah....qaaaaaaaaaaaaaaaaaaaaaaaiddddddiaaaaaaaaaaaaaaaaaaaaaaah..",
".......eaaaaaaaaaaaaaaaaaaaaaaa#........#aaaaaaaaaaaaaaaaaaaaaaaah.....aaaaaaaaaaaaaaaaaaaaaaaqddddddiaaaaaaaaaaaaaaaaaaaaaaah..",
"........aaaaaaaaaaaaaaaaaaaaaaa#........#aaaaaaaaaaaaaaaaaaaaaaaah.....aaaaaaaaaaaaaaaaaaaaaaaqddddddeaaaaaaaaaaaaaaaaaaaaaaas..",
"........aaaaaaaaaaaaaaaaaaaaaaa#........#aaaaaaaaaaaaaaaaaaaaaaaah.....aaaaaaaaaaaaaaaaaaaaaaaqddddddqaaaaaaaaaaaaaaaaaaaaaaa...",
"........aaaaaabttttttttttttbaaa#........maaaaaaaaaaaaaaaaaaaaaaaah.....aaaaaaaaaaaaaaaaaaaaaaaqddddddqaaaaaaaaaaaaaaaaaaaaaaa...",
"........aaaaaabttttttttttttbaaa#........laaaaaaaaaaaaaaaaaaaaaaaah.....aaaaaaaaaaaaaaaaaaaaaaaqddddddqaaaaaaaaaaaaaaaaaaaaaaa...",
"........aaaaaabttttttttttttbaaa#........laaaaaaaaaaaaaaaaaaaaaaaa......aaaaaaaaaaaaaaaaaaaaaaaqddddddqaaaaaaaaaaaaaaaaaaaaaaa...",
"........aaaaaabttttttttttttbaaa#........laaaaaaaaaaaaaaaaaaaaaaaa......aaaaaaaaaaaaaaaaaaaaaaaqddddddqaaaaaaaaaaaaaaaaaaaaaaa...",
"........aaaaaabttttttttttttbaaam........laaaaaaaaaaaaaaaaaaaaaaaa......uaaaaaaaaaaaaaaaaaaaaaaqddddddqaaaaaaaaaaaaaaaaaaaaaaa...",
"........kaaaaabttttttttttttbaaal........laaaaaaaaaaaaaaaaaaaaaaaa......laaaaaaaaaaaaaaaaaaaaaamddddddqaaaaaaaaaaaaaaaaaaaaaaa...",
"........laaaaabttttttttttttbaaal........laaaaaaaaaaaaaaaaaaaaaaaa......laaaaaaaaaaaaaaaaaaaaaamddddddqaaaaaaaaaaaaaaaaaaaaaaa...",
"........laaaaavttttttttttttaaaal........uaaaaaaaaaaaaaaaaaaaaaaaa......laaaaaaaaaaaaaaaaaaaaaamddddddqaaaaaaaaaaaaaaaaaaaaaaa...",
"........laaaaawttttttttttttaaaal........aaaaaaaaaaaaaaaaaaaaaaaax......laaaaaaaaaaaaaaaaaaaaaamddddddqaaaaaaaaaaaaaaaaaaaaaaa...",
"........laaaaawttttttttttttaaaal........aaaaaaaaaaaaaaaaaaaaaaaal......laaaaaaaaaaaaaaaaaaaaaamddddddqaaaaaaaaaaaaaaaaaaaaaaa...",
"........laaaaawttttttttttttaaaal........aaaaaaaaaaaaaaaaaaaaaaaal......laaaaaaaaaaaaaaaaaaaaaamddddddyaaaaaaaaaaaaaaaaaaaaaau...",
"........laaaaawttttttttttttaaaal........aaaaaaaaaaaaaaaaaaaaaaaal......laaaaaaaaaaaaaaaaaaaaaamddddddmaaaaaaaaaaaaaaaaaaaaaal...",
"........laaaaawttttttttttttaaaak........aaaaaaaaaaaaaaaaaaaaaaaal......maaaaaaaaaaaaaaaaaaaaaamddddddmaaaaaaaaaaaaaaaaaaaaaal...",
"........maaaaawttttttttttttaaaaa........aaaaaaaaaaaaaaaaaaaaaaaal......#aaaaaaaaaaaaaaaaaaaaaaaddddddmaavzzzzzzAAAAAABaaaaaal...",
"........#aaaaawttttttttttttaaaaa.......qaaaaaaaaaaaaaaaaaaaaaaaal......#aaaaaaaaaaaaaaaaaaaaaaaddddddmaavzzzzzzzzzzzzvaaaaaal...",
"........#aaaaawttttttttttttaaaaa.......haaaaaaaaaaaaaaaaaaaaaaaaC......#aaaaaaaaaaaaaaaaaaaaaaaddddddmaavzzzzzzzzzzzzvaaaaaal...",
"........#aaaaawttttttttttttaaaaaDD.....haaaaaaaaaaaaaaaaaaaaaaaa#......#aaaaaaaaaaaaaaaaaaaaaaaddddddmaaEzzzzzzzzzzzzbaaaaaal...",
"........#aaaaawttttttttttttaaaaaddddfjn.aaaaaaaaaaaaaaaaaaaaaaaa#......#aaaaaaaaaaaaaaaaaaaaaaaddddddmaaEzzzzzzzzzzzzaaaaaaal...",
"........#aaaaawttttttttttttaaaaadddddddiaaaaaaaaaaaaaaaaaaaaaaaa#......#aaaaaaaaaaaaaaaaaaaaaaaddddddmaaEzzzzzzzzzzzzaaaaaaal...",
"........#aaaaawttttttttttttaaaaadddddddiaaaaaaaaaaaaaaaaaaaaaaaa#......FaaaaaaaaaaaaaaaaaaaaaaaddddddmaaEzzzzzzzzzzzzaaaaaaal...",
"........#aaaaawttttttttttttaaaaajddddddGaaaaaaaaaaaaaaaaaaaaaaaa#......haaaaaaaaaaaaaaaaaaaaaaaHdddddmaaEzzzzzzzzzzzzaaaaaaal...",
"........gaaaaaItttttttttttEaaaaaiddddddqaaaaaaaaaaaaaaaaaaaaaaaa#......haaaaaaaaaaaaaaaaaaaaaaaidddddmaaEzzzzzzzzzzzzaaaaaaal...",
"........haaaaaJtttttttttttJaaaaaiddddddqaaaaaaaaaaaaaaaaaaaaaaaay......haaaaaaaaaaaaaaaaaaaaaaaidddddCaaAzzzzzzzzzzzKaaaaaaaL...",
"........haaaaaJtttttttttttJaaaaaiddddddqaaaaaaaaaaaaaaaaaaaaaaaah......haaaaaaaaaaaaaaaaaaaaaaaidddddaaaAzzzzzzzzzzzAaaaaaaa#...",
"........haaaaaJtttttttttttJaaaaaiddddddqaaaaaaaaaaaaaaaaaaaaaaaah......haaaaaaaaaaaaaaaaaaaaaaaidddddaaaAzzzzzzzzzzzAaaaaaaa#...",
"........haaaaaJtttttttttttJaaaaaiddddddqaaaaaaaaaaaaaaaaaaaaaaaah......haaaaaaaaaaaaaaaaaaaaaaaidddddaaaAzzzzzzzzzzzAaaaaaaa#...",
"........haaaaaJtttttttttttJaaaaaiddddddqaaaaaaaaaaaaaaaaaaaaaaaah......haaaaaaaaaaaaaaaaaaaaaaaidddddaaaAzzzzzzzzzzzAaaaaaaa#...",
"........haaaaaJtttttttttttJaaaaaiddddddmaaaaaaaaaaaaaaaaaaaaaaaah......saaaaaaaaaaaaaaaaaaaaaaaidddddaaaAzzzzzzzzzzzAaaaaaaa#...",
"........haaaaaJtttttttttttJaaaaaMddddddmaaaaaaaaaaaaaaaaaaaaaaaah.......aaaaaaaaaaaaaaaaaaaaaaaGdddddaaazzzzzzzzzzzzNaaaaaaa#...",
"........eaaaaaJtttttttttttJaaaaaqddddddmaaaaaaaaaaaaaaaaaaaaaaaae.......aaaaaaaaaaaaaaaaaaaaaaaqdddddaaazzzzzzzzzzzzEaaaaaaa#...",
".........aaaaaJtttttttttttJaaaaaqddddddmaaaaaaaaaaaaaaaaaaaaaaaa........aaaaaaaaaaaaaaaaaaaaaaaqdddddaaazzzzzzzzzzzzEaaaaaaa#...",
".........aaaaaJtttttttttttJaaaaaqddddddmaaaaaaaaaaaaaaaaaaaaaaaa........aaaaaaaaaaaaaaaaaaaaaaaqdddddaaazzzzzzzzzzzzEaaaaaaa#...",
".........aaaaaJtttttttttttJaaaaaqddddddmaaaaaaaaaaaaaaaaaaaaaaaa........aaaaaaaaaaaaaaaaaaaaaaaqdddddaaazzzzzzzzzzzzEaaaaaaa#...",
".........aaaaaJtttttttttttJaaaaaqddddddlaaaaaaaaaaaaaaaaaaaaaaaa........aaaaaaaaaaaaaaaaaaaaaaaqdddddaaazzzzzzzzzzzzEaaaaaaa#...",
".........aaaaaJtttttttttttJaaaaaqddddddaaaaaaaaaaaaaaaaaaaaaaaaa........aaaaaaaaaaaaaaaaaaaaaaaqdddddaaBzzzzzzzzzzzzJaaaaaaag...",
".........aaaaaEtttttttttttIaaaaaqddddddaaaaaaaaaaaaaaaaaaaaaaaaa........kaaaaaaaaaaaaaaaaaaaaaaqddddiaavzzzzzzzzzzzzvaaaaaaah...",
".........aaaaattttttttttttwaaaaayddddddaaaaaaaaaaaaaaaaaaaaaaaak........laaaaaaaaaaaaaaaaaaaaaapddddiaavzzzzzzzzzzzzvaaaaaaah...",
".........kaaaattttttttttttwaaaaamddddddaaaaaaaaaaaaaaaaaaaaaaaal........laaaaaaaaaaaaaaaaaaaaaamddddiaavzzzzzzzzzzzzvaaaaaaah...",
".........laaaattttttttttttwaaaaamddddddaaaaaaaaaaaaaaaaaaaaaaaal........laaaaaaaaaaaaaaaaaaaaaamddddiaavzzzzzzzzzzzzvaaaaaaah...",
".........laaaattttttttttttwaaaaamdddddHaaaaaaaaaaaaaaaaaaaaaaaaOnnnnffffLaaaaaaaaaaaaaaaaaaaaaamddddiaavzzzzzzzzzzzzvaaaaaaah...",
".........laaaattttttttttttwaaaaamdddddiaaaaaaaaaaaaaaaaaaaaaaaamddddddddmaaaaaaaaaaaaaaaaaaaaaaLffddiaaJzzzzzzzzzzzzBaaaaaaah...",
".........laaaattttttttttttwaaaaamdddddiaaaaaaaaaaaaaaaaaaaaaaaamddddddddmaaaaaaaaaaaaaaaaaaaaaal....haaEzzzzzzzzzzzzaaaaaaaah...",
".........laaaawwwwwwwwwwwwbaaaaamdddddiaaaaaaaaaaaaaaaaaaaaaaaaPddddddddmaaaaaaaaaaaaaaaaaaaaaal....haaEzzzzzzzzzzzzaaaaaaaah...",
".........laaaaaaaaaaaaaaaaaaaaaamdddddiaaaaaaaaaaaaaaaaaaaaaaaaqddddddddmaaaaaaaaaaaaaaaaaaaaaal....haaEzzzzzzzzzzzzaaaaaaaah...",
".........laaaaaaaaaaaaaaaaaaaaaaldddddiaaaaaaaaaaaaaaaaaaaaaaaaqddddddddmaaaaaaaaaaaaaaaaaaaaaal....haaEzzzzzzzzzzzzaaaaaaaah...",
".........maaaaaaaaaaaaaaaaaaaaaaadddddiaaaaaaaaaaaaaaaaaaaaaaaaqddddddddPaaaaaaaaaaaaaaaaaaaaaal....haaEzzzzzzzzzzzzaaaaaaaah...",
".........#aaaaaaaaaaaaaaaaaaaaaaadddddqaaaaaaaaaaaaaaaaaaaaaaaaqddddddddqaaaaaaaaaaaaaaaaaaaaaaa....haaQzzzzzzzzzzzRaaaaaaaae...",
".........#aaaaaaaaaaaaaaaaaaaaaaadddddqaaaaaaaaaaaaaaaaaaaaaaaaqddddddddqaaaaaaaaaaaaaaaaaaaaaaa....yaaAzzzzzzzzzzzAaaaaaaaa....",
".........#aaaaaaaaaaaaaaaaaaummmmdddddqaaaaaaBvvvJEEEvaaaaaaaaaqddddddddqaaaaaaaaaaaaaaaaaaaaaaa....#aaAzzzzzzzzzzzAaaaaaaaa....",
".........shhhhhhhhhhhhhhjdddddddddddddqaazzzzzzzzzzzzEaaaaaaaaaiddddddddqaaaaaaaaaaaaaaaaaaaaaaa....#aaAzzzzzzzzzzzAaaaaaaaa....",
"........................ddddddddddddddqaazzzzzzzzzzzzNaaaaaaaaaiddddddddqaaaaaaaaaaaaaaaaaaaaaaa....#aaAzzzzzzzzzzzAaaaaaaaa....",
"........................ddddddddddddddqaaAzzzzzzzzzzzAaaaaaaaaaiddddddddqaaaxlllllllllL#########....#aaAzzzzzzzzzzzAaaaaaaaa....",
".......................SddddddddddddddyaaAzzzzzzzzzzzAaaaaaaaaaiddddddddddddf.......................#aaRzzzzzzzzzzzQaaaaaaaa....",
".......................DddddddddddddddmaaAzzzzzzzzzzzAaaaaaaaaaiddddddddddddT.......................#aazzzzzzzzzzzzEaaaaaaaa....",
".......................iddddddddddddddmaaAzzzzzzzzzzzAaaaaaaaaaiddddddddddddd.......................#aazzzzzzzzzzzzEaaaaaaaa....",
".......................nddddddddddddddmaaNzzzzzzzzzzzzaaaaaaaaajddddddddddddd.......................#aaEEEEEEQAAAAAIaaaaaaaa....",
".......................oddddddddddddddmaaEzzzzzzzzzzzzaaaaaaaaaddddddddddddddS......................#aaaaaaaaaaaaaaaaaaaaaaa....",
".......................UiiiiijddddddddmaaEzzzzzzzzzzzzaaaaaaaaaddddddddddddddD......................#aaaaaaaaaaaaaaaaaaaaaaa....",
"......llllllllkaaaaaaaaaaaaaaqddddddddCaaEzzzzzzzzzzzzaaaaaaaaaddddddddddddddD......................#aaaaaaaaaaaaaaaaaaaaaal....",
"......aaaaaaaaaaaaaaaaaaaaaaaqddddddddaaaJzzzzzzzzzzzzvaaaaaaaaddddddddddddddi......................#aaaaaaaaaaaaaaaaaaaaaal....",
"......aaaaaaaaaaaaaaaaaaaaaaaqddddddddaaavzzzzzzzzzzzzvaaaaaaaaddddddddddddddVhhhhhhh#######h.......Laaaaaaaaaaaaaaaaaaaaaal....",
"......aaaaaaaaaaaaaaaaaaaaaaaqddddddddaaavzzzzzzzzzzzzvaaaaaaauddddddaaaaaaaaaaaaaaaaaaaaaaa#.......laaaaaaaaaaaaaaaaaaaaaal....",
"......aaaaaaaaaaaaaaaaaaaaaaaqddddddddaaavzzzzzzzzzzzzvaaaaaaamddddddaaaaaaaaaaaaaaaaaaaaaaa#.......laaaaaaaaaaaaaaaaaaaaaal....",
"......laaaaaaaaaaaaaaaaaaaaaaPddddddddaaavzzzzzzzzzzzzJaaaaaaamddddddaaaaaaaaaaaaaaaaaaaaaaa#.......laaaaaaaaaaaaaaaaaaaaaal....",
"......laaaaaaaaaaaaaaaaaaaaaamddddddddaaaazzzzzzzzzzzzEaaaaaaamddddddaaaaaaaaaaaaaaaaaaaaaaaC.......laaaaaaaaaaaaaaaaaaaaaal....",
"......laaaaaaaaaaaaaaaaaaaaaamdddddddiaaaazzzzzzzzzzzzEaaaaaaamddddddCaaaaaaaaaaaaaaaaaaaaaal.......laaaaaaaaaaaaaaaaaaaaaal....",
"......laaaaaaaaaaaaaaaaaaaaaamdddddddiaaaazzzzzzzzzzzzEaaaaaaamddddddmaaaaaabbbbbbaaaaaaaaaal.......laaaaaaaaaaaaaaaaaaaaaal....",
"......laaaaaaaaaaaaaaaaaaaaaamdddddddiaaaazzzzzzzzzzzzNaaaaaaamddddddmaaaaabttttttttttttbaaal.......laaaaaaaaaaaaaaaaaaaaaal....",
"......laaaaaaaaaaaaaaaaaaaaaamdddddddiaaaaAzzzzzzzzzzzAaaaaaaaqddddddmaaaaabttttttttttttbaaal.......laaaaaaaaaaaaaaaaaaaaaal....",
"......laaaaaaaaaaaaaaaaaaaaaamdddddddiaaaaAzzzzzzzzzzzAaaaaaaaqddddddmaaaaabttttttttttttbaaal.......laaaaaaaaaaaaaaaaaaaaaal....",
"......laaaaaaaaaaaaaaaaaaaaaamdddddddiaaaaAzzzzzzzzzzzAaaaaaaaqddddddmaaaaavttttttttttttcaaal.......laaaaaaaaaaaaaaaaaaaaaa#....",
"......laaaaaaaaaaaaaaaaaaaaaamdddddddMaaaaAzzzzzzzzzzzAaaaaaaaqddddddmaaaaawttttttttttttaaaak.......laaaaaaaaaaaaaaaaaaaaaa#....",
"......#aaaaaaaaaaaaaaaaaaaaaamdddddddqaaaaEzzzzzzzzzzzzaaaaaaaqddddddmaaaaawttttttttttttaaaaa.......laaaaaaaaaaaaaaaaaaaaaa#....",
"......#aaaaaaaaaaaaaaaaaaaaaamdddddddqaaaaEzzzzzzzzzzzzaaaaaaaqddddddyaaaaawttttttttttttaaaaa.......uaaaaaaaaaaaaaaaaaaaaaa#....",
"......#aaaaaaaaaaaaaaaaaaaaaaudddddddqaaaaEzzzzzzzzzzzzaaaaaaaMddddddqaaaaawttttttttttttaaaaa.......aaaaaaaaaaaaaaaaaaaaaaa#....",
"......#aaaaaaaaaaaaaaaaaaaaaaadddddddqaaaaEzzzzzzzzzzzzaaaaaaaiddddddqaaaaawttttttttttttaaaaa.......aaaaaaaaaaaaaaaaaaaaaaa#....",
"......#aaaaaaaaaaaaaaaaaaaaaaadddddddqaaaaIzzzzzzzzzzzzvaaaaaaiddddddqaaaaawttttttttttttaaaaa.......aaaaaaaaaaaaaaaaaaaaaaa#....",
"......#aaaaaaaaaaaaaaaaaaaaaaadddddddpaaaavzzzzzzzzzzzzvaaaaaaiddddddqaaaaaItttttttttttEaaaaa.......aaaaaaaaaaaaaaaaaaaaaaa#....",
"......#aaaaaaaaaaaaaaaaaaaaaaadddddddmaaaavzzzzzzzzzzzzvaaaaaaiddddddqaaaaaJtttttttttttJaaaaa.......aaaaaaaaaaaaaaaaaaaaaaa#....",
"......#aaaaaaaaaaaaaaaaaaaaaaadddddddmaaaavzzzzzzzzzzzzvaaaaaaiddddddqaaaaaJtttttttttttJaaaaaq......aaaaaaaaaaaaaaaaaaaaaaa#....",
"......#aaaaaaaaaaaaaaaaaaaaaaa.MDinjfLaaaaBzzzzzzzzzzzzJaaaaaaoddddddqaaaaaJtttttttttttJaaaaah......aaaaaaaaaaaaaaaaaaaaaaa#....",
"......gaaaaaaaaaaaaaaaaaaaaaaa.......laaaaazzzzzzzzzzzzEaaaaaadddddddeaaaaaJtttttttttttJaaaaah......aaaaaaaaaaaaaaaaaaaaaaa#....",
"......haaaaaaaaaaaaaaaaaaaaaaa.......laaaaazzzzzzzzzzzzEaaaaaadddddddiaaaaaJtttttttttttJaaaaah......aaaaaaaaaaaaaaaaaaaaaaah....",
"......haaaaaaaaaaaaaaaaaaaaaaa.......laaaaazzzzzzzzzzzzEaaaaaadddddddiaaaaaJtttttttttttJaaaaah......aaaaaaaaaaaaaaaaaaaaaaah....",
"......haaaaaaaaaaaaaaaaaaaaaaah......uaaaaazzzzzzzzzzzzNaaaaaadddddddiaaaaaEtttttttttttIaaaaah......aaaaaaaaaaaaaaaaaaaaaaah....",
"......haaaaaaaaaaaaaaaaaaaaaaah......aaaaaaAzzzzzzzzzzzAaaaaaadddddddiaaaaattttttttttttwaaaaah......aaaaaaaaaaaaaaaaaaaaaaah....",
"......haaaaaaaaaaaaaaaaaaaaaaah......aaaaaaAzzzzzzzzzzzAaaaaaadddddddiaaaaattttttttttttwaaaaag.....qaaaaaaaaaaaaaaaaaaaaaaah....",
"......haaaaaaaaaaaaaaaaaaaaaaah......aaaaaaAzzzzzzzzzzzAaaaaamdddddddiaaaaattttttttttttwaaaaa#.....haaaaaaaaaaaaaaaaaaaaaaah....",
"......haaaaaaaaaaaaaaaaaaaaaaah......aaaaaaAzzzzzzzzzzzAaaaaamdddddddiaaaaattttttttttttwaaaaa#.....haaaaaaaaaaaaaaaaaaaaaaah....",
"......haaaaaaaaaaaaaaaaaaaaaaah......aaaaaaEzzzzzzzzzzzzaaaaamdddddddiaaaaattttttttttttwaaaaa#.....haaaaaaaaaaaaaaaaaaaaaaah....",
"......eaaaaaaaaaaaaaaaaaaaaaaah......aaaaaaEzzzzzzzzzzzzaaaaamddddddddaaaaattttttttttttwaaaaa#.....haaaaaaaaaaaaaaaaaaaaaaah....",
".......aaaaaaaaaaaaaaaaaaaaaaah.....eaaaaaabvvvvvBaaaaaaaaaaamddddddddaaaaattttttttttttwaaaaa#.....haaaaaaaaaaaaaaaaaaaaaaah....",
".......aaaaaaaaaaaaaaaaaaaaaaaF.....haaaaaaaaaaaaaaaaaaaaaaaamddddddddaaaabttttttttttttbaaaaa#.....haaaaaaaaaaaaaaaaaaaaaaah....",
".......aaaaaaaaaaaaaaaaaaaaaaa#.....haaaaaaaaaaaaaaaaaaaaaaaayddddddddaaaabttttttttttttbaaaaa#.....haaaaaaaaaaaaaaaaaaaaaaaq....",
".......aaaaaaaaaaaaaaaaaaaaaaa#.....haaaaaaaaaaaaaaaaaaaaaaaaqddddddddaaaabttttttttttttbaaaaaC.....haaaaaaaaaaaaaaaaaaaaaaa.....",
".......aaaaaaaaaaaaaaaaaaaaaaa#.....haaaaaaaaaaaaaaaaaaaaaaaaqddddddddaaaabttttttttttttbaaaaal.....haaaaaaaaaaaaaaaaaaaaaaa.....",
".......aaaaaaaaaaaaaaaaaaaaaaa#.....haaaaaaaaaaaaaaaaaaaaaaaaqddddddddaaaabttttttttttttbaaaaal.....haaaaaaaaaaaaaaaaaaaaaaa.....",
".......aaaaaaaaaaaaaaaaaaaaaaa#.....haaaaaaaaaaaaaaaaaaaaaaaaqddddddddaaaabttttttttttttbaaaaal.....haaaaaaaaaaaaaaaaaaaaaaa.....",
".......aaaaaaaaaaaaaaaaaaaaaaa#.....gaaaaaaaaaaaaaaaaaaaaaaaaqddddddddCaaaBttttttttttttbaaaaal.....haaaaaaaaaaaaaaaaaaaaaaa.....",
".......uaaaaaaaaaaaaaaaaaaaaaa#.....#aaaaaaaaaaaaaaaaaaaaaaaaeddddddddmaaawttttttttttttaaaaaal.....Faaaaaaaaaaaaaaaaaaaaaaa.....",
".......laaaaaaaaaaaaaaaaaaaaaam.....#aaaaaaaaaaaaaaaaaaaaaaaaiddddddddmaaawttttttttttttaaaaaal.....#aaaaaaaaaaaaaaaaaaaaaaa.....",
".......laaaaaaaaaaaaaaaaaaaaaal.....#aaaaaaaaaaaaaaaaaaaaaaaaiddddddddmaaawttttttttttttaaaaaak.....#aaaaaaaaaaaaaaaaaaaaaaa.....",
".......laaaaaaaaaaaaaaaaaaaaaal.....#aaaaaaaaaaaaaaaaaaaaaaaaGfffjnnnnOaaawttttttttttttaaaaaaa.....#aaaaaaaaaaaaaaaaaaaaaaa.....",
".......laaaaaaaaaaaaaaaaaaaaaal.....#aaaaaaaaaaaaaaaaaaaaaaaah........laaawttttttttttttaaaaaaa.....#aaaaaaaaaaaaaaaaaaaaaaa.....",
".......laaaaaaaaaaaaaaaaaaaaaal.....#aaaaaaaaaaaaaaaaaaaaaaaah........laaawttttttttttttaaaaaaa.....#aaaaaaaaaaaaaaaaaaaaaaa.....",
".......laaaaaaaaaaaaaaaaaaaaaal.....#aaaaaaaaaaaaaaaaaaaaaaaah........laaaIttttttttttttaaaaaaannnnnraaaaaaaaaaaaaaaaaaaaaax.....",
".......laaaaaaaaaaaaaaaaaaaaaal.....laaaaaaaaaaaaaaaaaaaaaaaaq........laaaJtttttttttttJaaaaaaadddddqaaaaaaaaaaaaaaaaaaaaaal.....",
".......laaaaaaaaaaaaaaaaaaaaaal.....laaaaaaaaaaaaaaaaaaaaaaaa.........CaaaJtttttttttttJaaaaaaadddddqaaaaaaaaaaaaaaaaaaaaaal.....",
".......Laaaaaaaaaaaaaaaaaaaaaal.....laaaaaaaaaaaaaaaaaaaaaaaa.........#aaaJtttttttttttJaaaaaaadddddqaaaaaaaaaaaaaaaaaaaaaal.....",
".......#aaaaaaaaaaaaaaaaaaaaaaa.....mllllluaaaaaaaaaaaaaaaaaa.........#aaacbbbbbBwwwwwBaaaaaaadddddqaaaaaaaaaaaaaaaaaaaaaal.....",
".......#aaaaaaaaaaaaaaaaaaaaaaa.................ehhhhhg######.........#aaaaaaaaaaaaaaaaaaaaaaadddddqaaaaaaaaaaaaaaaaaaaaaal.....",
".......#aaaaaaaaaaaaaaaaaaaaaaa.......................................#aaaaaaaaaaaaaaaaaaaaaaadddddjiiiiiiieqqqqqqq#######y.....",
".......#aaaaaaaaaaaaaaaaaaaaaaa.......................................#aaaaaaaaaaaaaaaaaaaaaaaddddddddddddddddddddd............."};
