/* XPM */
static char *dummy[]={
"128 128 52 1",
"y c #c36b45",
"M c #c46c45",
"W c #c56c45",
"z c #c56c46",
"U c #c66c46",
"E c #c66d46",
"K c #c76d46",
"t c #c86e47",
"u c #c96e48",
"x c #ca6f48",
"v c #cb6f48",
"w c #cb6f49",
"P c #cc7048",
"I c #cc7049",
"G c #cd7049",
"A c #cd7149",
"a c #ce7149",
". c #ce714a",
"b c #cf714a",
"# c #cf724a",
"c c #d0724a",
"V c #d1724b",
"C c #d1734b",
"d c #d2734b",
"T c #d3744b",
"F c #d3744c",
"e c #d4744c",
"H c #d5754c",
"J c #d5754d",
"O c #d6764d",
"f c #d7764d",
"g c #d8764d",
"D c #d8774e",
"N c #d9774e",
"i c #da774e",
"L c #da784e",
"h c #db784f",
"l c #dc794f",
"m c #dd7950",
"j c #de7a50",
"k c #e07b51",
"n c #e17b51",
"q c #e27c51",
"s c #e37c51",
"X c #e37d51",
"p c #e47d52",
"Q c #e57d52",
"S c #e57e52",
"o c #e67e52",
"B c #e77f52",
"R c #e87f52",
"r c #e98053",
".....................#.......a..................#...a......................b.#.......b............................b............b",
"................................................................................................................................",
"................................................................................................................................",
"................................................................................................................................",
"................................................................................................................................",
"................................................................................................................................",
"...........................cddddddddeffffffffghhhhhhhhg.........................................................................",
"fffffffffihhhhhhhhjkkkkkkkkkkkkkkkkkkkkkkkkkkkkkkkkkkkh.................................................................dddddddd",
"kkkkkkkkkkkkkkkkkkkkkkkkkkkkkkkkkkkkkkkkkkkkkkkkkkkkkkh................................bddddddddffffffffhhhhhhhhkkkkkkkkkkkkkkkk",
"kkkkkkkkkkkkkkkkkkkkkkkkkkkkkkkkkkkkkkkkkkkkkkkkkkkkkkh........cfffffffghhhhhhhlkkkkkkkkkkkkkkkkkkkkkkkkkkkkkkkkkkkkkkkkkkkkkkkk",
"kkkkkkkkkkkkkkkkkkkkkkkkkkkkkkkkkkkkkkkkkkkkkkkkkkkkkkm........dkkkkkkkkkkkkkkkkkkkkkkkkkkkkkkkkkkkkkkkkkkkkkkkkkkkkkkkkkkkkkkkk",
"kkkkkkkkkkkkkkkkkkkkkkkkkkkkkkkkkkkkkkkkkkkkkkkkkkkkkkk........dkkkkkkkkkkkkkkkkkkkkkkkkkkkkkkkkkkkkkkkkkkkkkkkkkkkkkkkkkkkkkkkk",
"kkkkkkkkkkkkkkkkkkkkkkkkkkkkkkkkkkkkkkkkkkkkkkkkkkkkkkk........dkkkkkkkkkkkkkkkkkkkkkkkkkkkkkkkkkkkkkkkkkkkkkkkkkkkkkkkkkkkkkkkk",
"kkkkkkkkkkkkkkkkkkkkkkkkkkkkkkkkkkkkkkkkkkkkkkkkkkkkkkk........dkkkkkkkkkkkkkkkkkkkkkkkkkkkkkkkkkkkkkkkkkkkkkkkkkkkkkkkkkkkkkkkk",
"kkkkkkkkkkkkkkkkkkkkkkkkkkkkkkkkkkkkkkkkkkkkkkkkkkkkkkk........dkkkkkknooooooooooooooppppppppppppppqqqqqqqqqqqqqqkkkkkkkkkkkkkkk",
"kkkkkkkkkkkkkkkkkkkkkkkkkkkkkkkkkkkkkkkkkkkkkkkkkkkkkkk........dkkkkkkqrrrrrrrrrrrrrrrrrrrrrrrrrrrrrrrrrrrrrrrrrrkkkkkkkkkkkkkkk",
"kkkkkkkkkkkkkkkkkkkkkkkkkkkkkkkkkkkkkkkkkkkkkkkkkkkkkkk........dkkkkkkqrrrrrrrrrrrrrrrrrrrrrrrrrrrrrrrrrrrrrrrrrrkkkkkkkkkkkkkkk",
"kkkkkkkkkkkkkkkkkkkkkkkkkkkkkkkkkkkkkkkkkkkkkkkkkkkkkkk.........kkkkkkqrrrrrrrrrrrrrrrrrrrrrrrrrrrrrrrrrrrrrrrrrrkkkkkkkkkkkkkkk",
"kkkkkkkkkkkkkkkkkkkkkkkkkkkkkkkkkkkkkkkkkkkkkkkkkkkkkkk.........kkkkkkqrrrrrrrrrrrrrrrrrrrrrrrrrrrrrrrrrrrrrrrrrrkkkkkkkkkkkkkkk",
"kkkkkkkkkkkkkkkkkkkkkkkkkkkkkkkkkkkkkkkkkkkkkkkkkkkkkkkd........kkkkkkqrrrrrrrrrrrrrrrrrrrrrrrrrrrrrrrrrrrrrrrrrrkkkkkkkkkkkkkkk",
"kkkkkkkkkkkkkkkkkkkkkkkkkkkkkkkkkkkkkkkkkkkkkkkkkkkkkkkd........kkkkkksrrrrrrrrrrrrrrrrrrrrrrrrrrrrrrrrrrrrrrrrrrkkkkkkkkkkkkkkk",
"kkkkkkkkkkkkkkkkkkkkkkkkkkkkkkkkkkkkkkkkkkkkkkkkkkkkkkkd........kkkkkkprrrrrrrrrrrrrrrrrrrrrrrrrrrrrrrrrrrrrrrrrrkkkkkkkkkkkkkkk",
"kkkkkkkkkkkkkkkkkkkkkkkkkkkkkkkkkkkkkkkkkkkkkkkkkkkkkkkd........kkkkkkprrrrrrrrrrrrrrrrrrrrrrrrrrrrrrrrrrrrrrrrrrkkkkkkkkkkkkkkk",
"kkkkkkkkkkkkkkkkkkkkkkkkkkkkkkkkkkkkkkkkkkkkkkkkkkkkkkkatuvw....kkkkkkprrrrrrrrrrrrrrrrrrrrrrrrrrrrrrrrrrrrrrrrrrkkkkkkkkkkkkkkk",
"kkkkkkkkkkkkkkkkkkkkkkkkkkkkkkkkkkkkkkkkkkkkkkkkkkkkkkkxyyyyyyzzkkkkkkprrrrrrrrrrrrrrrrrrrrrrrrrrrrrrrrrrrrrrrrrrkkkkkkkkkkkkkkk",
"kkkkkkkkkkkkkkkkkkkkkkkkkkkkkkkkkkkkkkkkkkkkkkkkkkkkkkkxyyyyyyyykkkkkkprrrrrrrrrrrrrrrrrrrrrrrrrrrrrrrrrrrrrrrrrrkkkkkkkkkkkkkkk",
"kkkkkkkkkkkkkkkkkkkkkkkkkkkkkkkkkkkkkkkkkkkkkkkkkkkkkkkAyyyyyyyylkkkkksoooooooooooooBrrrrrrrrrrrrrrrrrrrrrrrrrrrrkkkkkkkkkkkkkkk",
"kkkkkkkkkkkkkkkkkkkkkkkkkkkkkkkkkkkkkkkkkkkkkkkkkkkkkkkCyyyyyyyyDkkkkkkkkkkkkkkkkkkkkkkkkkkkkkkkkkkqqqqqqqqqqqqqqkkkkkkkkkkkkkkk",
"kkkkkkkkkkkkkkkkkkkkkkkkkkkkkkkkkkkkkkkkkkkkkkkkkkkkkkkCyyyyyyyyDkkkkkkkkkkkkkkkkkkkkkkkkkkkkkkkkkkkkkkkkkkkkkkkkkkkkkkkkkkkkkkk",
"kkkkkkkkkkkkkkkkkkkkkkkkkkkkkkkkkkkkkkkkkkkklDDDDDDDDDDAyyyyyyyyDkkkkkkkkkkkkkkkkkkkkkkkkkkkkkkkkkkkkkkkkkkkkkkkkkkkkkkkkkkkkkkk",
"kkkkkkkklhhhhhhhiffffffffddddddddEyyyyyyyyyyyyyyyyyyyyyyyyyyyyyyDkkkkkkkkkkkkkkkkkkkkkkkkkkkkkkkkkkkkkkkkkkkkkkkkkkkkkkkkkkkkkkk",
".................................yyyyyyyyyyyyyyyyyyyyyyyyyyyyyyyCkkkkkkkkkkkkkkkkkkkkkkkkkkkkkkkkkkkkkkkmhhhhhhhgfffffffFddddddd",
"................................GyyyyyyyyyyyyyyyyyyyyyyyyyyyyyyyCkkkkkkklDDDDDDDHCCCCCCCAxxxxxxxI...............................",
"................................vyyyyyyyyyyyyyyyyyyyyyyyyyyyyyyyyyyyyyyyyyyyyyyyyyyyyyyyyyyyyyyyv...............................",
"................................xyyyyyyyyyyyyyyyyyyyyyyyyyyyyyyyyyyyyyyyyyyyyyyyyyyyyyyyyyyyyyyyv...............................",
"................................tyyyyyyyyyyyyyyyyyyyyyyyyyyyyyyyyyyyyyyyyyyyyyyyyyyyyyyyyyyyyyyy................................",
"...dffffffJddddddd..............Kyyyyyyyyyyyyyyyyyyyyyyyyyyyyyyyyyyyyyyyyyyyyyyyyyyyyyyyyyyyyyyy................................",
"...fkkkkkkkkkkkkkkkkkkkkkhhhhhhheCCCCCAxxxxxxyyyyyyyyyyyyyyyyyyyyyyyyyyyyyyyyyyyyyyyyyyyyyyyyyyz................................",
"...fkkkkkkkkkkkkkkkkkkkkkkkkkkkkkkkkkkkkkkkkkkkkkkkLDDDDDHCCCCC#xxxxxxMyyyyyyyyyyyyyyyyyyyyyyyyz................................",
"...NkkkkkkkkkkkkkkkkkkkkkkkkkkkkkkkkkkkkkkkkkkkkkkkkkkkkkkkkkkkkkkkkkkkkkkkklDDDDDOCCCCCCPxxxxxI................................",
"...hkkkkkkkkkkkkkkkkkkkkkkkkkkkkkkkkkkkkkkkkkkkkkkkkkkkkkkkkkkkkkkkkkkkkkkkkkkkkkkkkkkkkkkkkkkkkkkkkkklhhhhhhffffffJddddddc.....",
"...hkkkkkkkkkkkkkkkkkkkkkkkkkkkkkkkkkkkkkkkkkkkkkkknqqqspppQooookkkkkkkkkkkkkkkkkkkkkkkkkkkkkkkkkkkkkkkkkkkkkkkkkkkkkkkkkkf.....",
"...hkkkkkkkkkkkkkkkkkkkkkkkkkkkkkknqqqqppppoooorrrrrrrrrrrrrrrrrkkkkkkkkkkkkkkkkkkkkkkkkkkkkkkkkkkkkkkkkkkkkkkkkkkkkkkkkkkf.....",
"...hkkkkkkkkkkkkkkkkknppppooooRrrrrrrrrrrrrrrrrrrrrrrrrrrrrrrrrrnkkkkkkkkkkkkkkkkkkkkkkkkkkkkkkkkkkkkkkkkkkkkkkkkkkkkkkkkkf.....",
"...hkkkkkkkkkkkkkkkkkqrrrrrrrrrrrrrrrrrrrrrrrrrrrrrrrrrrrrrrrrrrqkkkkkkkkkkkkkkkkkkkkkkkkkkkkkkkkkkkkkkkkkkkkkkkkkkkkkkkkkd.....",
"...lkkkkkkkkkkkkkkkkkqrrrrrrrrrrrrrrrrrrrrrrrrrrrrrrrrrrrrrrrrrrqkkkkkkkkkkkkkkkkkkkkkkkkkkkkkkkkkkkkkkkkkkkkkkkkkkkkkkkkkd.....",
"...kkkkkkkkkkkkkkkkkknrrrrrrrrrrrrrrrrrrrrrrrrrrrrrrrrrrrrrrrrrrqkkkkkkkkkkkkkkkkkkkkkkkkkkkkkkkkkkkkkkkkkkkkkkkkkkkkkkkkkd.....",
"...kkkkkkkkkkkkkkkkkkkrrrrrrrrrrrrrrrrrrrrrrrrrrrrrrrrrrrrrrrrrrskkkkkkkkkkkkkkkkkkkkkkkkkkkkkkkkkkkkkkkkkkkkkkkkkkkkkkkkkd.....",
"...kkkkkkkkkkkkkkkkkkkrrrrrrrrrrrrrrrrrrrrrrrrrrrrrrrrrrrrrrrrrrpkkkkkkkkkkkkkkkkkkkkkkkkkkkkkkkkkkkkkkkkkkkkkkkkkkkkkkkkkd.....",
"...kkkkkkkkkkkkkkkkkkkrrrrrrrrrrrrrrrrrrrrrrrrrrrrrrrrrrrrrrrrrrpkkkkkkkkkkkkkkkkkkkkkkkkkkkkkkkkkkkkkkkkkkkkkkkkkkkkkkkkkd.....",
"...kkkkkkkkkkkkkkkkkkkrrrrrrrrrrrrrrrrrrrrrrrrrrrrrrrrrrrrrrrrrrpkkkkkkkkkkkkkkkkkkkkkkkkkkkkkkkkkkkkkkkkkkkkkkkkkkkkkkkkkb.....",
"..bkkkkkkkkkkkkkkkkkkkrrrrrrrrrrrrrrrrrrrrrrrrrrrrrrrrrrrrrrrrrrSkkkkkkkkkkkkkkkkkkkkkkkkkkkkkkkkkkkkkkkkkkkkkkkkkkkkkkkkk......",
"..dkkkkkkkkkkkkkkkkkkkrrrrrrrrrrrrrrrrrrrrrrrrrrrrrrrrrrrrrrrrrrokkkkkkkkkkkkkkkkkkkkkkkkkkkkkkkkkkkkkkkkkkkkkkkkkkkkkkkkk......",
"..dkkkkkkkkkkkkkkkkkkkorrrrrrrrrrrrrrrrrrrrrrrrrrrrrrrrrrrrrBoooQkkkkkkkkkkkkkkkkkkkkkkkkkkkkkkkkkkkkkkkkkkkkkkkkkkkkkkkkk......",
"..dkkkkkkkkkkkkkkkkkkkorrrrrrrrrrrrrrrrrrrrBooooppppqqqqkkkkkkkkkkkkkkkkkkkkkkkkkkkkkkkkkkkkkkkkkkkkkkkkkkkkkkkkkkkkkkkkkk......",
"..dkkkkkkkkkkkkkkkkkkkorrrBooooppppqqqqkkkkkkkkkkkkkkkkkkkkkkkkkkkkkkkkkkkkkkkkkkkkkkkkkkkkkkkkkkkkkkkkkkkkkkkkkkkkkkkkkkk......",
"..dkkkkkkkkkkkkkkkkkkkkkkkkkkkkkkkkkkkkkkkkkkkkkkkkkkkkkkkkkkkkkkkkkkkkkkkkkkkkkkkkkkkkkkkkkkkkkkkkkkkkkkkkkkkkkkkkkkkkkkl......",
"..dkkkkkkkkkkkkkkkkkkkkkkkkkkkkkkkkkkkkkkkkkkkkkkkkkkkkkkkkkkkkkkkkkkkkkkkkkkkkkkkkkkkkkkkkkkkkkkkkkkkkkkkkkkkkkkkkkkkkkkh......",
"..fkkkkkkkkkkkkkkkkkkkkkkkkkkkkkkkkkkkkkkkkkkkkkkkkkkkkkkkkkkkkkkkkkkkkkkkkkkkkkkkkkkkkkkkkkkkkkkkkkkkkkkkkkkkkkkkkkkkkkkh......",
"..fkkkkkkkkkkkkkkkkkkkkkkkkkkkkkkkkkkkkkkkkkkkkkkkkkkkkkkkkkkkkkkkkkkkkkkkkkkkkkkkkkkkkkkkkkkkkkkkkkkkkkkkkkkkkkkkkkkkkkkh......",
"..fkkkkkkkkkkkkkkkkkkkkkkkkkkkkkkkkkkkkkkkkkkkkkkkkkkkkkkkkkkkkkkkkkkkkkkkkkkkkkkkkkkkkkkkkkkkkkkkkkkkkkkkkkkkkkkkkkkkkkkh......",
"..cdddddddCCCCCCHDDDDDDkkkkkkkkkkkkkkkkkkkkkkkkkkkkkkkkkkkkkkkkkkkkkkkkkkkkkkkkkkkkkkkkkkkkkkkkkkkkkkkkkkkkkkkkkkkkkkkkkkh......",
"..........zyyyyyyyyyyyyyyyyyytxxxxxACCCCCTDDDDDDjkkkkkkkkkkkkkkkkkkkkkkkkkkkkkkkkkkkkkkkkkkkkkkkkkkkkkkkkkkkkkkkkkkkkkkkkN......",
"..........UyyyyyyyyyyyyyyyyyyyyyyyyyyyyyyyyyyyyyyyyyyyExxxxxPCCCCCCODDDDDlkkkkkkkkkkkkkkkkkkkkkkkkkkkkkkkkkkkkkkkkkkkkkkkf......",
"..........tyyyyyyyyyyyyyyyyyyyyyyyyyyyyyyyyyyyyyyyyyyyyyyyyyyyyyyyyyyyyyyt......VddddddJffffffhhhhhhhkkkkkkkkkkkkkkkkkkkkf......",
"..........tyyyyyyyyyyyyyyyyyyyyyyyyyyyyyyyyyyyyyyyyyyyyyyyyyyyyyyyyyyyyyyt.................................bddddddFffffffd......",
"..........tyyyyyyyyyyyyyyyyyyyyyyyyyyyyyyyyyyyyyyyyyyyyyyyyyyyyyyyyyyyyyyz......................................................",
"..........tyyyyyyyyyyyyyyyyyyyyyyyyyyyyyyyyyyyyyyyyyyyyyyyyyyyyyyyyyyyyyyz......................................................",
"..........xyyyyyyyyyyyyyyyyyyyyyyyyyyyyyyyyyyyyyyyyyyyyyyyyyyyyyyyyyyyyyyz......................................................",
"..........vyyyyyyyyyyyyyyyytxxxxxxxACCCCCCCTDDDDDDDDyyyyyyyyyyyyyyyyyyyyyz......................................................",
"fffffffffffDDDDDDDDkkkkkkkkkkkkkkkkkkkkkkkkkkkkkkkkkyyyyyyyyyyyyyyyyyyyyyy..............................................Vddddddd",
"kkkkkkkkkkkkkkkkkkkkkkkkkkkkkkkkkkkkkkkkkkkkkkkkkkkkyyyyyyyyyyyyyyyyyyyyyy...............cdddddddJffffffghhhhhhhmkkkkkkkkkkkkkkk",
"kkkkkkkkkkkkkkkkkkkkkkkkkkkkkkkkkkkkkkkkkkkkkkkkkkkkyyyyyyyyyCCCCCCCCCCCCChhhhhhhlkkkkkkkkkkkkkkkkkkkkkkkkkkkkkkkkkkkkkkkkkkkkkk",
"kkkkkkkkkkkkkkkkkkkkkkkkkkkkkkkkkkkkkkkkkkkkkkkkkkkkEyyyyyyyykkkkkkkkkkkkkkkkkkkkkkkkkkkkkkkkkkkkkkkkkkkkkkkkkkkkkkkkkkkkkkkkkkk",
"kkkkpppppppqqqqqqqkkkkkkkkkkkkkkkkkkkkkkkkkkkkkkkkkkxyyyyyyyyjkkkkkkkkkkkkkkkkkkkkkkkkkkkkkkkkkkkkkkkkkkkkkkkkkkkkkkkkkkkkkkkkkk",
"kkkkrrrrrrrrrrrrrrrrrrrrrBooooooQppppppsqqqqqqnkkkkkxyyyyyyyyDkkkkkkkkkkkkkkkkkkkkkkkkkkkkkkkkkkkkkkkkkkkkkkkkkkkkkkkkkkkkkkkkkk",
"kkkkrrrrrrrrrrrrrrrrrrrrrrrrrrrrrrrrrrrrrrrrrrpkkkkkxyyyyyyyyDkkkkkkkkkkkkkkkkkkkkkkkkkkkkkkkkkkkkkkkkkkkkkkkkkkkkkkkkkkkkkkkkkk",
"kkknrrrrrrrrrrrrrrrrrrrrrrrrrrrrrrrrrrrrrrrrrrpkkkkkattxvvG..hkkkkkkkkkkkkkkkkkkkkkkkkkkkkkkkkkkkkkkkkkkkkkkkkkkkkkkkkkkkkkkkkkk",
"kkkqrrrrrrrrrrrrrrrrrrrrrrrrrrrrrrrrrrrrrrrrrrpkkkkkd........hkkkkkkkkkkkkkkkkkkkkkkkkkkkkkkkkkkkkkkkkkkkkkkkkkkkkkkkkkkkkkkkkkk",
"kkkqrrrrrrrrrrrrrrrrrrrrrrrrrrrrrrrrrrrrrrrrrrqkkkkkd........hkkkkkkkkkkkkkkkkkkkkkkkkkkkkkkkkkkkkkkkkkkkkkkkkkkkkkkkkkkkkkkkkkk",
"kkkqrrrrrrrrrrrrrrrrrrrrrrrrrrrrrrrrrrrrrrrrrrqkkkkkd........hkkkkkkkkkkkkkkkkkkkkkkkkkkkkkkkkkkkkkkkkkkkkkkkkkkkkkkkkkkkkkkkkkk",
"kkkqrrrrrrrrrrrrrrrrrrrrrrrrrrrrrrrrrrrrrrrrrrqkkkkke........ikkkkkkkkkkkkkkkkkkkkkkkkkkkkkkkkkkkkkkkkkkkkkkkkkkkkkkkkkkkkkkkkkk",
"kkkqrrrrrrrrrrrrrrrrrrrrrrrrrrrrrrrrrrrrrrrrrrqkkkkkf........fkkkkkkkkkkkkkkkkkkkkkkkkkkkkkkkkkkkkkkkkkkkkkkkkkkkkkkkkkkkkkkkkkk",
"kkkqrrrrrrrrrrrrrrrrrrrrrrrrrrrrrrrrrrrrrrrrrrqkkkkkf........fkkkkkkkkkkkkkkkkkkkkkkkkkkkkkkkkkkkkkkkkkkkkkkkkkkkkkkkkkkkkkkkkkk",
"kkkprrrrrrrrrrrrrrrrrrrrrrrrrrrrrrrrrrrrrrrrrrqkkkkkf........fkkkkkkkkkkkkkkkkkkkkkkkkkkkkkkkkkkkkkkkkkkkkkkkkkkkkkkkkkkkkkkkkkk",
"kkkprrrrrrrrrrrrrrrrrrrrrrrrrrrrrrrrrrrrrrrrrrkkkkkkf........fkkkkkkkkkkkkkkkkkkkkkkkkkkkkkkkkkkkkkkkkkkkkkkkkkkkkkkkkkkkkkkkkkk",
"kkkprrrrrrrrrrrrrrrrrrrrrrrrrrrrrrrrrrrrrrrrrrkkkkkkf........fkkkkkkkkkkkkkkkkkkkkkkkkkkkkkkkkkkkkkkkkkkkkkkkkkkkkkkkkkkkkkkkkkk",
"kkkkkkkkkknqqqqqqqppppppQooooooBrrrrrrrrrrrrrrkkkkkkf........fkkkkkkkkkkkkkkkkkkkkkkkkkkkkkkkkkkkkkkkkkkkkkkkkkkkkkkkkkkkkkkkkkk",
"kkkkkkkkkkkkkkkkkkkkkkkkkkkkkkkkkkkkkkkqqqqqqqkkkkkkf........fkkkkkkkkkkkkkkkkkkkkkkkkkkkkkkkkkkkkkkkkkkkkkkkkkkkkkkkkkkkkkkkkkk",
"kkkkkkkkkkkkkkkkkkkkkkkkkkkkkkkkkkkkkkkkkkkkkkkkkkkkh........fkkkkkkkkkkkkkkkkkkkkkkkkkkkkkkkkkkkkkkkkkkkkkkkkkkkkkkkkkkkkkkkkkk",
"kkkkkkkkkkkkkkkkkkkkkkkkkkkkkkkkkkkkkkkkkkkkkkkkkkkkh........fkkkkkkkkkkkkkkkkkkkkkkkkkkkkkkkkkkkkkkkkkkkkkkkkkkkkkkkkkkkkkkkkkk",
"kkkkkkkkkkkkkkkkkkkkkkkkkkkkkkkkkkkkkkkkkkkkkkkkkkkkh........Fkkkkkkkkkkkkkkkkkkkkkkkkkkkkkkkkkkkkkkkkkkkkkkkkkkkkkkkkkkkkkkkkkk",
"kkkkkkkkkkkkkkkkkkkkkkkkkkkkkkkkkkkkkkkkkkkkklhhhhhhg........dkkkkkkkkkkkkkkkkkkkkkkkkkkkkkkkkkkkkkkkkkkkkkkkkkkkkkkkkkkkkkkkkkk",
"kkkkkkkkkkkkkkklhhhhhhifffffffFddddddV.......................dkkkkkkkkkkkkkkkkkkkkkkkkkkkkkkkkkkkkkkkkkkkkkkkkkkkkkkkkkkkkkkkkkk",
"yyyyyyyz.....................................................dkkkkkkkkkkkkkkkkkkkkkkkkkkkkkkkkkkkkkkkkkkLDDDDDDDTCCCCCCCxxxxxxxx",
"yyyyyyyz.....................................................dkkkkkkkkkklDDDDDDDHCCCCCCCPxxxxxxxMyyyyyyyyyyyyyyyyyyyyyyyyyyyyyyy",
"yyyyyyyz................................................................tyyyyyyyyyyyyyyyyyyyyyyyyyyyyyyyyyyyyyyyyyyyyyyyyyyyyyyy",
"yyyyyyyt................................................................Uyyyyyyyyyyyyyyyyyyyyyyyyyyyyyyyyyyyyyyyyyyyyyyyyyyyyyyy",
"yyyyyyyt................................................................zyyyyyyyyyyyyyyyyyyyyyyyyyyyyyyyyyyyyyyyyyyyyyyyyyyyyyyy",
"yyCCCCCdddddddddddddc...................................................Wyyyyyyyyyyyyyyyyyyyyyyyyyyyyyyyyyyyyyyyyyyyyyyyyyyyyyyy",
"yykkkkkkkkkkkkkkkkkkkkkkkkkkkkkkklhhhhhhhhhhhhgffffffffffffdddddddddddddyyyyyyyyyyyyyyyyyyyyyyyyyyyyyyyyyyyyyyyyyyyyyyyyyyyyyyyy",
"yykkkkkkkkkkkkkkkkkkkkkkkkkkkkkkkkkkkkkkkkkkkkkkkkkkkkkkkkkkkkkkkkkkkkkkkkkkkkkkkkkkLDDDDDDDDDDDHCCCCCCCCCCC#xxxxxxxxxxxxyyyyyyy",
"yykkkkkkkkkkkkkkkkkkkkkkkkkkkkkkkkkkkkkkkkkkkkkkkkkkkkkkkkkkkkkkkkkkkkkkkkkkkkkkkkkkkkkkkkkkkkkkkkkkkkkkkkkkkkkkkkkkkkkkkyyyyyyy",
"yEkkkkkkkkkkkkkkkkkkkkkkkkkkkkkkkkkkkkkkkkkkkkkkkkkkkkkkknooooooppppppqqqqqqkkkkkkkkkkkkkkkkkkkkkkkkkkkkkkkkkkkkkkkkkkkkkyyyyyyy",
"yxkkkkkkkkkkkkkkkkkkkkkkkkkkkkkkkkkkkkkkkkkkkkkkkkkkkkkkkqrrrrrrrrrrrrrrrrrrrrrrrrooooooppppppqqqqqqkkkkkkkkkkkkkkkkkkkkkyyyyyyy",
"yxkkkkkkkkkkkkkkkkkkkkkkkkkkkkkkkkkkkkkkkkkkkkkkkkkkkkkkkqrrrrrrrrrrrrrrrrrrrrrrrrrrrrrrrrrrrrrrrrrrqkkkkkkkkkkkkkkkkkkkDyyyyyyy",
"yxkkkkkkkkkkkkkkkkkkkkkkkkkkkkkkkkkkkkkkkkkkkkkkkkkkkkkkkXrrrrrrrrrrrrrrrrrrrrrrrrrrrrrrrrrrrrrrrrrrqkkkkkkkkkkkkkkkkkkkDyyyyyyy",
"yxkkkkkkkkkkkkkkkkkkkkkkkkkkkkkkkkkkkkkkkkkkkkkkkkkkkkkkkprrrrrrrrrrrrrrrrrrrrrrrrrrrrrrrrrrrrrrrrrrqkkkkkkkkkkkkkkkkkkkDyyyyyyy",
"yxkkkkkkkkkkkkkkkkkkkkkkkkkkkkkkkkkkkkkkkkkkkkkkkkkkkkkkkprrrrrrrrrrrrrrrrrrrrrrrrrrrrrrrrrrrrrrrrrrkkkkkkkkkkkkkkkkkkkkDyyyyyyy",
"yxkkkkkkkkkkkkkkkkkkkkkkkkkkkkkkkkkkkkkkkkkkkkkkkkkkkkkkkprrrrrrrrrrrrrrrrrrrrrrrrrrrrrrrrrrrrrrrrrrkkkkkkkkkkkkkkkkkkkkDyyyyyyy",
"yxkkkkkkkkkkkkkkkkkkkkkkkkkkkkkkkkkkkkkkkkkkkkkkkkkkkkkkkprrrrrrrrrrrrrrrrrrrrrrrrrrrrrrrrrrrrrrrrrrkkkkkkkkkkkkkkkkkkkkDyyyyyyy",
"y#kkkkkkkkkkkkkkkkkkkkkkkkkkkkkkkkkkkkkkkkkkkkkkkkkkkkkkkprrrrrrrrrrrrrrrrrrrrrrrrrrrrrrrrrrrrrrrrrrkkkkkkkkkkkkkkkkkkkkHyyyyyyy",
"yCkkkkkkkkkkkkkkkkkkkkkkkkkkkkkkkkkkkkkkkkkkkkkkkkkkkkkkkSrrrrrrrrrrrrrrrrrrrrrrrrrrrrrrrrrrrrrrrrrrkkkkkkkkkkkkkkkkkkkkCyyyyyyy",
"yCkkkkkkkkkkkkkkkkkkkkkkkkkkkkkkkkkkkkkkkkkkkkkkkkkkkkkkkorrrrrrrrrrrrrrrrrrrrrrrrrrrrrrrrrrrrrrrrrrkkkkkkkkkkkkkkkkkkkkCyyyyyyy",
"yCkkkkkkkkkkkkkkkkkkkkkkkkkkkkkkkkkkkkkkkkkkkkkkkkkkkkkkkorrrrrrrrrrrrrrrrrrrrrrrrrrrrrrrrrrrrrrrrrBkkkkkkkkkkkkkkkkkkkkdzzzyyyy",
".fkkkkkkkkkkkkkkkkkkkkkkkkkkkkkkkkkkkkkkkkkkkkkkkkkkkkkkkQoooooRrrrrrrrrrrrrrrrrrrrrrrrrrrrrrrrrrrrokkkkkkkkkkkkkkkkkkkkf.......",
".fkkkkkkkkkkkkkkkkkkkkkkkkkkkkkkkkkkkkkkkkkkkkkkkkkkkkkkkkkkkkkkkkkkknqqqqqspppppSoooooBrrrrrrrrrrrokkkkkkkkkkkkkkkkkkkkf.......",
".fkkkkkkkkkkkkkkkkkkkkkkkkkkkkkkkkkkkkkkkkkkkkkkkkkkkkkkkkkkkkkkkkkkkkkkkkkkkkkkkkkkkkkkkkkkkkqqqqqnkkkkkkkkkkkkkkkkkkkkf.......",
".fkkkkkkkkkkkkkkkkkkkkkkkkkkkkkkkkkkkkkkkkkkkkkkkkkkkkkkkkkkkkkkkkkkkkkkkkkkkkkkkkkkkkkkkkkkkkkkkkkkkkkkkkkkkkkkkkkkkkkkf.......",
".fkkkkkkkkkkkkkkkkkkkkkkkkkkkkkkkkkkkkkkkkkkkkkkkkkkkkkkkkkkkkkkkkkkkkkkkkkkkkkkkkkkkkkkkkkkkkkkkkkkkkkkkkkkkkkkkkkkkkkkf.......",
".fkkkkkkkkkkkkkkkkkkkkkkkkkkkkkkkkkkkkkkkkkkkkkkkkkkkkkkkkkkkkkkkkkkkkkkkkkkkkkkkkkkkkkkkkkkkkkkkkkkkkkkkkkkkkkkkkkkkkkkf.......",
".fkkkkkkkkkkkkkkkkkkkkkkkkkkkkkkkkkkkkkkkkkkkkkkkkkkkkkkkkkkkkkkkkkkkkkkkkkkkkkkkkkkkkkkkkkkkkkkkkkkkkkkkkkkkkkkkkkkkkkkf.......",
".fkkkkkkkkkkkkkkkkkkkkkkkkkkkkkkkkkkkkkkkkkkkkkkkkkkkkkkkkkkkkkkkkkkkkkkkkkkkkkkkkkkkkkkkkkkkkkkkkkkkkkkkkkkkkkkkkkkkkkkf.......",
".............cdddddddddddJfffffffffffihhhhhhhhhhhkkkkkkkkkkkkkkkkkkkkkkkkkkkkkkkkkkkkkkkkkkkkkkkkkkkkkkkkkkkkkkkkkkkkkkkf.......",
".............................................................ddddddddddddfffffffffffghhhhhhhhhhhlkkkkkkkkkkkkkkkkkkkkkkkf.......",
"............................................................................................................cdddddddddddc.......",
"................................................................................................................................",
"................................................................................................................................"};
