/* XPM */
static char *dummy[]={
"128 128 31 1",
". c #000000",
"b c #6f66c6",
"c c #729eb7",
"d c #74d7a8",
"e c #78369a",
"k c #7b6e8a",
"n c #7ea77b",
"i c #81e16c",
"# c #853d5d",
"j c #88764d",
"a c #8bb13e",
"f c #8f0a2e",
"g c #92441e",
"h c #957f0e",
"l c #98b9e2",
"m c #9c0fd3",
"p c #9f4ac3",
"q c #a286b4",
"o c #a6c3a4",
"s c #aa1694",
"r c #ad5284",
"t c #b08f73",
"u c #b4cd63",
"w c #b81d53",
"y c #bb5a42",
"v c #bf9831",
"A c #c2d720",
"x c #c6240f",
"z c #ca61f1",
"B c #cda1e0",
"C c #d1e0d0",
".#a.......bc.deeddddccb.............c.dafggggghhhhggggffae...............................................ijafgf..dk#ahlm.ll.....",
"..fh.........bcccccccbb...............#afggghhhhhhhhgggfan............................................cee#jaaa...b......c.dac.ao",
"gkhplbe#.........bbbbb................#afgghhhhhhhhhhggfai............bb..............................dki#jjajk.......cc...ik.ho",
"qqooop.ag.............................n#fghhhhhhhhhhhhggf..n.........ccbb..............................ni##jj#n.......ekkb....f.",
"rrrssogmph.#............................fghhhlllllhhhhhgfaaji.d.d.edddccbb............................enii###inc.......i#k....c.",
"ttrrrsooqpbgg.c................cbb.....aghhlllllllllhhhhggffaj#iinnkeedcbb............................dknniiiinec......jjn....jq",
"utttrrssoqpmmg.a..c...........ddcc....kfghlllllllllllhhhhggffaaj#iinkedcb.............................ccd.nnnnkedb...c.ga......f",
"uuttrrssooqpplhhfc#..c......ceeedc....#fghllllllllllllhhhgggffajj#ikedcb..................................ekkkedc...ik.pb.j.a.lv",
"uutttrrssoqqpmmlhffa.ii.kkenkkkedc...b..hlllmmmmmllllllhhhggffaaj#nd......................................cee.b...jgjcjoomkc.wqx",
"uuuttrrssoqqppmllhggfaj###iinnkkec....kjhlmmmmmmmmlllllhhhgggffa#i................................................ll.#ortt.wyvxz",
"uuuttrssooqqppmmlhhggfaajj##innkd.....fhlmmmmmmmmmmlllllhhhggfajk..............................................efmpqmqstuuwyvAxz",
"wuutrrsooqqppmmmllhggffaaj##inned...kahlmmmmmmmmmmmmllllhhhggfajn..............................................e.pqossrtuwwyvAxz",
"wuttsoqfppppmmmllhhggffaajj#inkd...be.hmmppppppmmmmmllllhhhggfji................................................lqossrttuwwyvvAx",
"wutro...j.lmmmlllhhggffaaj##in........hmppppppppmmmmmlllhhggfai..........................................b.....hpqosrrttuuwwwwwy",
"wuro.i....fhlllhhhgggffajj#ink......hmmppppppppppmmmmlllhhggfajkc.....................................d..nn.iahmpqosrrtttuurkf..",
"wuo.i.....ifjghhhggfffajj#i.d....iflmppqqqqqqpppppmmmllhhggffaji....................................bdekni#jfglmpqossrrtttrg.#fg",
"wurh.....bk..#fggfffaajiiik......e.lpqqqqqqqqqppppmmmllhggffaa#c....................................cekni##jfghlmpqossrrrro.#glp",
"wuo..b.......njaai.jjjk.e.......e..mqqoooqqqqqppppmmllhgiaaaaj......................................ceknii#jj#.k#jmposssssq.n.aq",
"wrq#ai.b.......nn.ck.n.......iahmqqqoooooooqqqqpppmmlhfnc.njj#k......................................dknniii......nmoosssoqg.e.s",
"unj.l...jjk.....b............n.lqooosssoooooqqqpppmmlg.....iin.........bbbbbbb........................eknnn....dk..gqoooooqmhf.r",
"wuos....ggcae............j..iij.osssssssooooqqqppmmmlhak..cnne.........bbccccbb......................bekkke.....kjfmpqqqqqpmhjgu",
"ywuti.ifhlmh.......n...cjgmppoqosrrrrssssoooqqpppmmllha...dee.........bbccccccb......................cdeeed.......flmpppppmhf.ty",
"yywugbifhmpp....cjfgk...i.hosrrrrrrrrrssssooqqppmmllhg....cc...........bcddddcb.......................ccddc.........bllb.hg.c.wA",
"yywwtl.n.foopd...agmpj.mlf#srttttttrrrrsssooqpmmlllhhgj...b............bcddeddc...........bccc..........bcb......b...if....bhsAx",
"vyywurm.i.srrq.g.#..osrrrpotttttttttrrrsssoqqm.fhhgggf#.................cdeeeedb.........bcdddb..................cdb..#...b.euAz",
"vvywuomh#.rttt.sga..stttttttuuuutttttrrrsooqpl.#jj..aa#.................ceekkedb.........bddeeeee................kkc..kc..loyAzz",
"vvyyte...mtuuuuutsbdruuuuuuuuuuuuutttrrrsoqpmh......i#i..................eknkkc.........bcdeekknn......kd.aajne..#id.....psuvxzB",
"vvvyw#l.krwwwwwwwtlruuwwwwwwwuuuuuutttrssmal.j#dc...cind.................ennnk.........bcddekkniiik..b..ghlhje..gac....ckmhfrxzB",
"Avvyyk.uuwwyyyyywwuwwwwwwwwwwwwuuuutttrsohn...kec...ckkd.................ciiin.........bcddekkni#jjja.gflmml.c.mm..........ssxBB",
"AAvvyuwyyyyyyyyyyyyyyyyyywwwwwwwwuuuttrsomnnb..c....ceed.................ki##i.........bcddeekni#jfghhlmmppplaqoq.ki...npgyAAzBB",
"AAAvvvyvvvvvvvvyyyyyyyyyyyyywwwwwuuutrso..inb.......bdddb.................#jj#c.........ccddddednjfghlmppqqqqoosso.ej.h.cyAxzBBC",
"AAAAvvvvvvvvvvvvvvvyyyyyyyyyywwwwwuutr.h............bcccb................ijaaj#.........bccc.....djfhlmpqqqoossrrrrt.t.yyAxzBBBC",
"AAAAAAAvvvvvvvvvvvvvvvvyyyyyyywwwwuutrmdnn...........bbbb.........bbb....nafffj.b........bb.........glmpqqoossrrttuwwyvAAxzzBBCC",
"AAAAAAAAAAAAvvvvvvvvvvvvvyyyyyywwwuutromfi.......................ddcb....jffggfai..d.................hmpqqoossrrtuuwyvAAxzzBBBCC",
"xAAAAAAAAAAAAAAAvvvvvvvvvvyyyyyywwuutrp........................dkkedb...iaggggggae.i.............bb..glpqqoossrrtuwwyvAxxzzBBCCC",
"xxxAAAAAAAAAAAAAAAvvvvvvvvvyyyyywwuursa.......................eiiie......fghhhhgg.#ai............ceb...pqqoosssrrtuwyvAxxzzBBCCC",
"xxxxxAAAAAAAAAAAAAAAvvvvvvvvyyyywwut.pcii.b...................ijji.....ifghhhhhhhggfa.d..........cnk..lpqqooosssssstuyvAxzzBBCCC",
"xxxxxxxAAAAAAAAAAAAAAvvvvvvvvyyyywu.gj.aa#.................cn#jaaj...cifghhllllllhhggfjk..........ijngmppqqoooo.fn..lowvxzzBBCCC",
"xxxxxxxxxxAAAAAAAAAAAAvvvvvvvyyyywwtocahfi..................iaaffa#....fhllllllllllhgfa#e.........naglmppqqqqqp...in..lwAxzBBCCC",
"xxxxxxxxxxxxAAAAAAAAAAAvvvvvvvyyywwutsqhj...........bb.....difffggfjffkgllllmmmmmllhgfj#nc.........jglmmpppqqpl.k#fgg..#wuxzBBCC",
"xxxxxxxxxxxxxAAAAAAAAAAAvvvvvvyyywwutrj.....c......bcdekk.jaffggggghhhhlllmmmmmmmmllg..kkd.........cfhlmmppppmh.c.kllh.#puxzBBCC",
"xxxxxxxxxxxxxxxAAAAAAAAAAvvvvvyyywwuts......n......bceni#jaffgghhhhhllllmmmmmmmmmmmlg...ccb.....b....ghlmmmmmmhj.d.mpmk..txzBBCC",
"xxxxxxxxxxxxxxxxAAAAAAAAAAvvvvvyywwut.f.k#.ij#........kijaffgghhhhlllllmmmmmppppppmmh.d.......cdc....aghhhllllhgjndqqqh..oAxzBCC",
"xxxxxxxxxxxxxxxxxAAAAAAAAAvvvvvyywwuts..#aaffai........kjafgghhhhllllmmmmmpppppppppmmg.a..edkkkedb...#aj..hhhhgf#..ssqgeduvAzBBC",
"zxxxxxxxxxxxxxxxxxAAAAAAAAAvvvvyywutro.ijfggga#.........iafgghhhllllmmmmmpppppppppppplllhhgfjined....ii.bifgf.a..#rtro..qr.evzBC",
"zzzxxxxxxxxxxxxxxxxAAAAAAAAvvvvyywto.q.eighhgf.d.........jfgghhllllmmmmmpppppppqqqqqppppmmhfinedc...ck..........gruut.c.mpipmwBC",
"zzzzzxxxxxxxxxxxxxxAAAAAAAAvvvvyywt..hj..fllhf...........jfghhhllllmmmmmpppppqqqqqqqqqqppml.........bd......b.jkruwwt#.c...vyzBC",
"zzzzzzxxxxxxxxxxxxxxAAAAAAAAvvvyyupf.jjn.hmmlgj......cb.b.aghhhlllmmmmmpppppqqqqqqqqqqqqqphb..............d..ihrwyyywhk.qdvxzBBC",
"zzzzzzzzxxxxxxxxxxxxxAAAAAAAvvvyyuos....hppplfik.....kd..jfghhllllmmmmmpppppqqqqqqoooooqqpm..c.........i.g...jpoyvvvvwk.gvxzBBCC",
"zzzzzzzzzxxxxxxxxxxxxAAAAAAAvvvvywwurlmqooqp...cb....i#infgghhllllmmmmpppppqqqqqoooooooooql..nd........glpqosryyvAAAAAAAwxzBBBCC",
"zzzzzzzzzzxxxxxxxxxxxxAAAAAAAvvvyywwuttrrso.........b#jaffghhhllllmmmmpppppqqqqooooooooooq..a#.......b.flmqrwyvvAAxxxxxxxzzBBCCC",
"zzzzzzzzzzzxxxxxxxxxxxAAAAAAAvvvvyywwuuttro..........#affgghhhllllmmmmpppppqqqqooooosssssoqqp..d.......jgfe.wvvAAxxxxzzzzzBBBCCC",
"zzzzzzzzzzzzxxxxxxxxxxxAAAAAAvvvvyyywwuutrqi........njaffgghhhllllmmmmmppppqqqqoooosssssssssodn#.d..j.c.i#jd.vAAxxxzzzzzBBBBCCCC",
"zzzzzzzzzzzzxxxxxxxxxxxAAAAAAvvvvvyyywwutrmb.......k#jafggghhhlllllmmmmppppqqqqooossssrrrrrrs....j..fl..hso.uvAxxxzzzzzBBBBBCCCC",
"zzzzzzzzzzzzzxxxxxxxxxxAAAAAAAvvvvyyywwuts.j.....ben#jafggghhhhllllmmmmmppppqqqooosssrrrrrrrroso..m.#cruuwul.AxxxzzzzzBBBBBCCCCC",
"zzzzzzzzzzzzzzxxxxxxxxxAAAAAAAvvvvyyywwuurp..b......ijaffgghhhhlllllmmmmmpppqqqooosssrrrtttttttto.tssnuyyvvvAAxxzzzzzBBBBBBCCCCC",
"zzzzzzzzzzzzzzxxxxxxxxxxAAAAAAvvvvyyywwutrm.i#n......#affggghhhhllllllmmmmpppqqqoosssrrrtttuuuuuuuwwuryvvvAAAxxxzzzzBBBBBBCCCCCC",
"zzzzzzzzzzzzzzzxxxxxxxxxAAAAAAvvvvyyywwutqjnaai......caffggghhhhhhllllllmmmmmpqqqoossrrtttuuuuwwwwyyyyvvAAAxxxxzzzzzBBBBBBCCCCCC",
"zzzzzzzzzzzzzzzxxxxxxxxxAAAAAAvvvvyyyywuqnabgga....d.#affgggghhhhhhhhhhhlllh.mppqqossrrtttuuwwwwyyyvvvvAAAxxxxzzzzzBBBBBBBCCCCCC",
"zzzzzzzzzzzzzzzzxxxxxxxxAAAAAAvvvvyyyywutm..mhnb...n#jafffggggghhhhhhgfbgggnehlmmhqossrttuuuwwwyyyvvvvAAAxxxxzzzzzzBBBBBBCCCCCCC",
"BBzzzzzzzzzzzzzzxxxxxxxxAAAAAAvvvvyyywwuursoq......n#jaafffggggggggggfj....#c..h.#pqosrrtuuuwwyyyvvvvAAAxxxxxzzzzzBBBBBBBCCCCCCC",
"BBBzzzzzzzzzzzzzxxxxxxxxAAAAAvvvvvyyywwwutrsqd.....i#jaaffffgggggfaja#ie...cc..k#cfpqljrttuuwwyyyvvvAAAAxxxxzzzzzzBBBBBBBCCCCCCC",
"BBBBzzzzzzzzzzzzxxxxxxxxAAAAAvvvvyyyywwwutts......en#jaaafffffffff#................jhkpsrtuuwwyyvvvAAAAxxxxxzzzzzBBBBBBBBCCCCCCC",
"BBBBBzzzzzzzzzzzzxxxxxxAAAAAvvvvvyyyywwwuttsq.......ijjaaaffffffaa#e................jnkosrtuwwyyvvvAAAAxxxxzzzzzzBBBBBBBBCCCCCCC",
"BBBBBBzzzzzzzzzzzxxxxxxAAAAAvvvvyyyywwwuuttsmkik.....#jaaaaaaaaaj#........bb.cc......c.hq..tuwyyvvvAAAAxxxxzzzzzzBBBBBBBBCCCCCCC",
"BBBBBBzzzzzzzzzzzxxxxxxAAAAvvvvyyyywwwwuutr.#.an...bn#jjaaaaaaa#........bcddeeecdd......h.qtuwwyyvvAAAAxxxxzzzzzzBBBBBBBBCCCCCCC",
"BBBBBBBzzzzzzzzzzxxxxxAAAAvvvvyyyywwwwuuutrollg....ki#jjjaaaajj#e......bcddekknnnne....dai.otuuwyvvAAAAxxxxzzzzzzBBBBBBBBCCCCCCC",
"BBBBBBBBzzzzzzzzzxxxxxAAAvvvyyywwwwwwuuuttrsop.....ki##jjjjjjj#id......bcdekknniiiikn......msoqtyvvvAAAxxxxzzzzzzBBBBBBBBCCCCCCC",
"BBBBBBBBzzzzzzzzzxxxxxAAAvvyywtuuuuuuuuuttrsom....ckii##jjjjj#ne.......bccdeknii#####nb.....pdhtwyvvAAAxxxxzzzzzzBBBBBBBBCCCCCCC",
"BBBBBBBBBzzzzzzzzxxxxxAAvyywwpfrtrttuuttttrsop.....bni#######ik..........bcekni##jjjj#..c...ha.twyyvvAAxxxxzzzzzzBBBBBBBBCCCCCCC",
"BBBBBBBBBzzzzzzzzxxxxAAvyrutsoe.mjsrtttttrrsqfen....kii######ikd............bni#jjaaaaj#k...jn..uwyyvAAAxxxzzzzzzBBBBBBBBCCCCCCC",
"BBBBBBBBBBzzzzzzzxxxxAAvu.q...f.#klsrrrrrrssq.##...dkniii##iink..............cn#jaaaffaaje......tuuuyvAAxxxzzzzzzBBBBBBBBBCCCCCC",
"BBBBBBBBBBzzzzzzzxxxxAAvw.nfa.....jjsrrrrrssopl....ekniiiiiiinc...............k#jaffffffa.......srn..yAAxxxxzzzzzBBBBBBBBBCCCCCC",
"BBBBBBBBBBzzzzzzzxxxxAAvytqmgk.....jossssssoqp.....dknniiiinnk................b.jaffggggf.en....qpnmfyvAAxxxzzzzzzBBBBBBBBCCCCCC",
"BBBBBBBBBBBzzzzzzxxxAAvvwrhh#.....k#possssooqpc.....eknnnnnnnkdb...............ejafggggggff#..dfmlajuyvAAxxxxzzzzzBBBBBBBBBCCCCC",
"BBBBBBBBBBBzzzzzzxxxAAvys..b......b.mqooooooq..k....dkknnnnnkkeb...............ciagghhhhhgga....fga.uyvAAxxxxzzzzzBBBBBBBBBCCCCC",
"BBBBBBBBBBBzzzzzzxxxAAvyr.d.bk..ce.gpqoooooqpmfj...ceekkknkkkedb.................aghhhhhhhgfi....i.g.wvvAAxxxzzzzzzBBBBBBBBCCCCC",
"BBBBBBBBBBBBzzzzzxxAAvyw.nfhjg..ckalpqqqoqqqpmh....cdekkkkkkeec..................aghhlllllha.......n.wyvAAAxxxzzzzzBBBBBBBBBCCCC",
"CBBBBBBBBBBBzzzzzxxAvurt.ahmmlf....fmpqqqqqppmh....bdeekkkkeed..........bbbb....kjghlllllllga.kd.....wyyvvAAxxxzzzzBBBBBBBBBCCCC",
"CBBBBBBBBBBBzzzzzxxAy#.qe..ppm....e.lppqqqppml..b...cdeeeeeeedb......b.ccccb....bbfhlmmmmmllhfi....ksuwwyyvAAxxzzzzzBBBBBBBBBCCC",
"CCBBBBBBBBBBBzzzzxxvol.hh#dqqpg...#flmppppppml#ib...cddeeeedddb...bbcccdddccb....jgllmmmmmmllg.....fsttt.quvAAxxzzzzBBBBBBBBBBCC",
"CCCBBBBBBBBBBzzzzxxvou....qssm.nc.iglmmppppmmlha....ccdddddddcb...bcdddddddcc....ahlmmppppmmlgi.cn.mssq....uovxxzzzzBBBBBBBBBBCC",
"CCCBBBBBBBBBBzzzzxxAAvuq.tttsf.....gllmmmmmmllgj....bccdddcccbb...bdddeeeeddc...bi#lmppppppmlf#...gpqqd#hh.lovxxzzzzBBBBBBBBBBBC",
"CCCCBBBBBBBBBzzzzzxxAAvyywwusk....ifhllmmmmmlhfbb....bcccc.b......bdeeeeeeedc...b..lmppqqqppl.e....mpp..eq.#yAxxzzzzzBBBBBBBBBBB",
"CCCCCBBBBBBBBBzzzzxxxAAvvyyw.....dk.aglllllllhgjk....bbbb..........deekkkkeedb....hmppqqqqqpmf....flmmha.truvAxxzzzzzBBBBBBBBBBB",
"CCCCCBBBBBBBBBzzzzzxxxAAAvyw.n.......ahlllllhhga..................ceekkkkkkedc....hmpqqqoqqqplakc..gjhfn.wyvAAxxzzzzzBBBBBBBBBBB",
"CCCCCCBBBBBBBBzzzzzzxxxAAvvw.g.i....ifghhhhhhhga.................bdekkknkkkeec...jfmpqoooooqpg.ec..kb.d.ryvAAxxxzzzzzzBBBBBBBBBB",
"CCCCCCBBBBBBBBBzzzzzxxxxAAvyu.agf....agghhhhhggaic...............bekknnnnnkkd....k..qooooooqm.b......b..syvAAxxxzzzzzzBBBBBBBBBB",
"CCCCCCBBBBBBBBBzzzzzxxxxAAvyujalmfd..#ffggggggfaje...............bdknnnnnnnke.....cpqoossssop#k.....#hhrwvvAAxxxzzzzzzBBBBBBBBBB",
"CCCCCCCBBBBBBBBzzzzzzxxxAAvyfmnpq....ne.fggggffaj.b................knniiiinnkd.....pqossssssoj.....kgmqtyvAAxxxxzzzzzzzBBBBBBBBB",
"CCCCCCCBBBBBBBBBzzzzzxxxxAAy..nrs.......affffffaj#k...............cniiiiiiinke....lpossrrrrrsjj.....afn.wvAAxxxxzzzzzzzBBBBBBBBB",
"CCCCCCCBBBBBBBBBzzzzzzxxxAAvyuuut......ejaaffaaaj#nc..............knii##iiinkd...##.qssrrrrrrslk#.f...q.uvAAxxxxzzzzzzzBBBBBBBBB",
"CCCCCCCCBBBBBBBBzzzzzzxxxAAAvyywu..nj...k#jaaaajj#inb............dki######iik....nefqsrrtttttrsjm.eosturyvAAxxxxzzzzzzzzBBBBBBBB",
"CCCCCCCCBBBBBBBBzzzzzzxxxxAAvvyywt.ah...c..#jjjj##inkecb..........ki#######inb.....posrttttuuttrtrfpwwyyvAAxxxxxzzzzzzzzBBBBBBBB",
"CCCCCCCCBBBBBBBBzzzzzzxxxxAAAvvywthdp.....bn#####iinkedccb.......en#jjjjj##iikc....mosrttuuuuuuuuutwyyvvAAAxxxxxzzzzzzzzzBBBBBBB",
"CCCCCCCCBBBBBBBBzzzzzzxxxxAAAvvvytqosm......nkiiiinnkkedcb......di#jjjjjjj##ik.....posrttuuuwwwwwwyyyvvvAAAxxxxxzzzzzzzzzBBBBBBB",
"CCCCCCCCBBBBBBBBzzzzzzxxxxAAAAvvywuuto.iad....ennnnkkeddcb......e#jjaaaajjj#ik....gllortuuuwwwwyyyyvvvvAAAAxxxxxzzzzzzzzzzBBBBBB",
"CCCCCCCCBBBBBBBBzzzzzzxxxxAAAAvvyywwutq.h......ddceeeddcb........#aaaaaaajj#nb...na.#.rtuuwwwwyyyyvvvvAAAAxxxxxxzzzzzzzzzzzBBBBB",
"CCCCCCCCBBBBBBBBzzzzzzxxxxAAAAvvvyywut..qh.c......cc.bb........#jaaaaaaaaaj#.....kikmsttuuwwwyyyyvvvvAAAAAxxxxxxzzzzzzzzzzzBBBBB",
"CCCCCCCCBBBBBBBBzzzzzzxxxxAAAAvvvyywwutrsoknj................e#aaffffffaaajji.......qsttuwwwyyyyvvvvvAAAAAxxxxxxzzzzzzzzzzzzBBBB",
"CCCCCCCCBBBBBBBBzzzzzxxxxxAAAAvvvyywwuutrspkhj................#fffffffffaaaj#ne......sttuwwwyyyyvvvvAAAAAxxxxxxxxzzzzzzzzzzzzBBB",
"CCCCCCCCBBBBBBBzzzzzzxxxxAAAAvvvyyywwuuttrjlqpfc#k..cc...ei#ajafgggggffffaaj#i.....dqsrtuwwwyyyvvvvvAAAAAxxxxxxxxzzzzzzzzzzzzzBB",
"CCCCCCCCBBBBBBBzzzzzxxxxxAAAvvvvyyywwuuutrrsoqp#.h..c#....jfggggggggggfffaaj#n......qosruuwwyyyvvvvAAAAAAxxxxxxxxzzzzzzzzzzzzzzB",
"CCCCCCCCBBBBBBzzzzzzxxxxAAAvvvvyyywwwuuuttrssoqhmmlhengggbfghhhhhhgggggfffaj#n...bnhm..mtuwyyyyvvvvAAAAAAxxxxxxxxzzzzzzzzzzzzzzz",
"CCCCCCCBBBBBBBzzzzzxxxxAAAvvvvyyywwwwuutttrrssoqqppm.hlllhhhhhhhhhhhggggffa#.d....aggbanquwyyyyvvvvAAAAAAxxxxxxxxxzzzzzzzzzzzzzz",
"CCCCCCCBBBBBBzzzzzxxxxAAAvvyyyywwwwuuuutttrrssooqqqpmmmmmllllllhhhhhhgggffac......iaanjqtuwwyyyvvvvAAAAAAxxxxxxxxxzzzzzzzzzzzzzz",
"CCCCCCCBBBBBBzzzzxxxAAAvvvyruwwuuuuuuutttrrrsssooqqqpppmmmmllllllhhhhgggffa#......n#i.mrtuwwyyyvvvvAAAAAAxxxxxxxxxxzzzzzzzzzzzzz",
"CCCCCCBBBBBBzzzzzxxAAvvvyyunsst.ottttttttrrrsssoooqqqpppmmmmmlllllhhhhggffaji......b..pruuwwyyyvvvvAAAAAAAxxxxxxxxxzzzzzzzzzzzzz",
"CCCCCCBBBBBzzzzzxxxA.luwuurc#.m..osorrrrrrrrsssoooqqqppppmmmmmllllhhhhgggfaj#neb.....j.stuwwyyyvvvvAAAAAAAxxxxxxxxxxzzzzzzzzzzzz",
"CCCCCBBBBBzzzzzxxxAvu.osh..lf..j....srrrrrrssssoooqqqqppppmmmmlllllhhhgggfaj#k.......bmrtuwwyyyvvvvvAAAAAAxxxxxxxxxxxzzzzzzzzzzz",
"CCCCCBBBBzzzzzxxxAAv.dj#i.c.j..d.#ndosssssssssooooqqqqppppmmmmmllllhhhggffajn........iqrtuuwwyyyvvvvAAAAAAxxxxxxxxxxxzzzzzzzzzzz",
"CCCCBBBzzzzzxxxxAAvvw.efgj.......d..pqqosssssoooooqqqqpppppmmmmllllhhhggffa#..........orttuuwwyyvvvvAAAAAAAxxxxxxxxxxxzzzzzzzzzz",
"CCCCBBzzxxxxxxxAAvvywrqmlf.b.......#a..qooooooooooqqqqpppppmmmmllllhhhgffaj#b.........osrrttuwwyyvvvAAAAAAAxxxxxxxxxxxxzzzzzzzzz",
"CCCBBBzxwAAAAAAAvyyrsoqplg........dn..lqoooooooooqqqqqpppppmmmmllllhhggfni#i....bc...pqooqmlruwwyvvvvAAAAAAAxxxxxxxxxxxxzzzzzzzz",
"CCCBBzxvg.kwvvvvyopj...g.i.........c..mpqqoooooqqqqqqpppppmmmmmllllhhgfj..dk.....kiflppph....souyyvvvAAAAAAAxxxxxxxxxxxxxzzzzzzz",
"CCBBzxvdq.khwyyywrhi..d..............bhpqqqqqqqqqqqqqpppppmmmmmlllhhhga.b.bc......jglmmh.njj.fpuyyvvvAAAAAAAAxxxxxxxxxxxxxxzzzzz",
"CCBzyv...c.#twwurkj.b......db.........lmppqqqqqqqqqqpppppmmmmmllllhhhgfj...........fhllf..jh..twyyvvvvAAAAAAAAxxxxxxxxxxxxxxzzzz",
"CCBwmpipm.c.tuurg..........kc...cdenifhmmppppqqqqqpppppppmmmmmllllhhggfj.........d.fghhgie.q.otwyyvvvvAAAAAAAAxxxxxxxxxxxxxxxxzz",
"CCBzve.rq..ortr#..a.fgfib.ii....denijfghhlllppppppppppppmmmmmllllhhhggfai.........#agggfji.ortuwyyvvvvAAAAAAAAAxxxxxxxxxxxxxxxxx",
"CCBBzAvudegqss..#fghhhh..ja#...bdekkkde..a.gmmpppppppppmmmmmllllhhhhggfajk........iaffaa#..stuwwyyvvvvvAAAAAAAAAxxxxxxxxxxxxxxxx",
"CCCBzxAo..hqqqdnjghllllhhhga....cdc.......d.hmmppppppmmmmmlllllhhhhggffajik........#ji.#k.f.tuwwyyvvvvvAAAAAAAAAAxxxxxxxxxxxxxxx",
"CCCBBzxt..kmpm.d.jhmmmmmmlhg....b.....bcc...glmmmmmmmmmmmllllhhhhhggffaj#inecb......n......stuwwyyyvvvvvAAAAAAAAAAxxxxxxxxxxxxxx",
"CCCBBzxup#.hllk.c.hmppppmmlhfc.........dkk..gllmmmmmmmmlllhhhhgggggffaj.kkedcb......c.....jrtuwwyyyvvvvvvAAAAAAAAAAAxxxxxxxxxxxx",
"CCCBBzxuw#..ggf#k.lpqqpppmmlgj.........cn#jfghllmmmmmllllgkffjfggfffid.....bb...........jhqstuwwyyyvvvvvvvAAAAAAAAAAAxxxxxxxxxxx",
"CCCCBBzxAwl..ni...pqqqqqppmlgan.........e#afghllllllllllhf....#affaai..................ifhacotwwyyyyvvvvvvvAAAAAAAAAAAAxxxxxxxxx",
"CCCCBBzzxvwol..nf.ooooqqppmgnji..........kjfgghhllllllhhgfic...jaaj#nc.................#aa.jg.uwyyyyvvvvvvvvAAAAAAAAAAAAAAxxxxxx",
"CCCCBBzzxAvyutssssssoooqqpl..knc..........d.afgghhhhhhhgfi.....ijji...................b.iicp.tuwwyyyyvvvvvvvvAAAAAAAAAAAAAAAxxxx",
"CCCCBBzzxxAvywutrrsssooqqp...bec............ia#.gghhhhgf......eiiie.......................asruuwwyyyyyvvvvvvvvvAAAAAAAAAAAAAAAxx"};
